<?xml version="1.0" encoding="UTF-8"?>
<svg xmlns="http://www.w3.org/2000/svg" xmlns:xlink="http://www.w3.org/1999/xlink" width="612pt" height="792pt" viewBox="0 0 612 792" version="1.1">
<g id="surface1">
<path style=" stroke:none;fill-rule:evenodd;fill:rgb(0%,0%,0%);fill-opacity:1;" d="M 294.230469 406.71875 C 286.90625 412.125 276.285156 415 267.136719 415 C 254.316406 415 242.773438 410.261719 234.039063 402.375 C 233.351563 401.753906 233.964844 400.90625 234.789063 401.386719 C 244.214844 406.871094 255.867188 410.175781 267.90625 410.175781 C 276.027344 410.175781 284.953125 408.488281 293.167969 405.003906 C 294.40625 404.480469 295.445313 405.820313 294.230469 406.71875 "/>
<path style=" stroke:none;fill-rule:evenodd;fill:rgb(0%,0%,0%);fill-opacity:1;" d="M 297.28125 403.238281 C 296.34375 402.035156 291.085938 402.667969 288.726563 402.949219 C 288.007813 403.035156 287.898438 402.410156 288.542969 401.960938 C 292.738281 399.011719 299.609375 399.863281 300.40625 400.851563 C 301.214844 401.84375 300.195313 408.734375 296.265625 412.023438 C 295.660156 412.527344 295.085938 412.257813 295.355469 411.589844 C 296.238281 409.382813 298.21875 404.4375 297.28125 403.238281 "/>
<path style=" stroke:none;fill-rule:evenodd;fill:rgb(0%,0%,0%);fill-opacity:1;" d="M 288.890625 381.148438 L 288.890625 378.285156 C 288.894531 377.851563 289.222656 377.5625 289.617188 377.5625 L 302.445313 377.5625 C 302.855469 377.5625 303.1875 377.859375 303.1875 378.28125 L 303.1875 380.738281 C 303.183594 381.148438 302.835938 381.6875 302.21875 382.539063 L 295.574219 392.027344 C 298.039063 391.96875 300.648438 392.339844 302.890625 393.601563 C 303.398438 393.882813 303.53125 394.304688 303.570313 394.71875 L 303.570313 397.769531 C 303.570313 398.191406 303.109375 398.679688 302.628906 398.425781 C 298.679688 396.355469 293.4375 396.128906 289.070313 398.449219 C 288.625 398.6875 288.160156 398.207031 288.160156 397.785156 L 288.160156 394.882813 C 288.160156 394.417969 288.167969 393.625 288.636719 392.914063 L 296.335938 381.871094 L 289.632813 381.871094 C 289.222656 381.871094 288.894531 381.578125 288.890625 381.148438 "/>
<path style=" stroke:none;fill-rule:evenodd;fill:rgb(0%,0%,0%);fill-opacity:1;" d="M 242.09375 399.027344 L 238.191406 399.027344 C 237.820313 399.003906 237.523438 398.722656 237.492188 398.367188 L 237.496094 378.335938 C 237.496094 377.933594 237.835938 377.613281 238.25 377.613281 L 241.886719 377.613281 C 242.265625 377.632813 242.570313 377.921875 242.59375 378.285156 L 242.59375 380.902344 L 242.667969 380.902344 C 243.613281 378.371094 245.398438 377.191406 247.804688 377.191406 C 250.246094 377.191406 251.773438 378.371094 252.867188 380.902344 C 253.816406 378.371094 255.964844 377.191406 258.261719 377.191406 C 259.898438 377.191406 261.683594 377.867188 262.777344 379.382813 C 264.015625 381.070313 263.761719 383.515625 263.761719 385.664063 L 263.757813 398.304688 C 263.757813 398.703125 263.421875 399.027344 263.003906 399.027344 L 259.105469 399.027344 C 258.714844 399.003906 258.40625 398.691406 258.40625 398.308594 L 258.40625 387.6875 C 258.40625 386.847656 258.480469 384.738281 258.296875 383.9375 C 258.003906 382.585938 257.132813 382.207031 256.003906 382.207031 C 255.054688 382.207031 254.070313 382.839844 253.671875 383.851563 C 253.269531 384.863281 253.304688 386.550781 253.304688 387.6875 L 253.304688 398.304688 C 253.304688 398.703125 252.96875 399.027344 252.554688 399.027344 L 248.652344 399.027344 C 248.261719 399.003906 247.953125 398.691406 247.953125 398.308594 L 247.949219 387.6875 C 247.949219 385.453125 248.3125 382.167969 245.546875 382.167969 C 242.738281 382.167969 242.847656 385.371094 242.847656 387.6875 L 242.847656 398.304688 C 242.847656 398.703125 242.511719 399.027344 242.09375 399.027344 "/>
<path style=" stroke:none;fill-rule:evenodd;fill:rgb(0%,0%,0%);fill-opacity:1;" d="M 314.265625 381.28125 C 311.386719 381.28125 311.203125 385.199219 311.203125 387.644531 C 311.203125 390.089844 311.167969 395.316406 314.230469 395.316406 C 317.253906 395.316406 317.398438 391.101563 317.398438 388.53125 C 317.398438 386.847656 317.328125 384.820313 316.816406 383.21875 C 316.378906 381.828125 315.503906 381.28125 314.265625 381.28125 Z M 314.230469 377.191406 C 320.023438 377.191406 323.15625 382.167969 323.15625 388.488281 C 323.15625 394.601563 319.695313 399.449219 314.230469 399.449219 C 308.546875 399.449219 305.449219 394.472656 305.449219 388.277344 C 305.449219 382.039063 308.582031 377.191406 314.230469 377.191406 "/>
<path style=" stroke:none;fill-rule:evenodd;fill:rgb(0%,0%,0%);fill-opacity:1;" d="M 330.667969 399.027344 L 326.777344 399.027344 C 326.386719 399.003906 326.078125 398.691406 326.078125 398.308594 L 326.070313 378.269531 C 326.105469 377.902344 326.429688 377.613281 326.820313 377.613281 L 330.441406 377.613281 C 330.78125 377.632813 331.0625 377.863281 331.136719 378.175781 L 331.136719 381.238281 L 331.210938 381.238281 C 332.304688 378.496094 333.832031 377.191406 336.527344 377.191406 C 338.277344 377.191406 339.988281 377.824219 341.082031 379.554688 C 342.101563 381.152344 342.101563 383.851563 342.101563 385.789063 L 342.101563 398.394531 C 342.058594 398.75 341.738281 399.027344 341.355469 399.027344 L 337.441406 399.027344 C 337.078125 399.003906 336.789063 398.738281 336.746094 398.394531 L 336.746094 387.519531 C 336.746094 385.328125 337.003906 382.125 334.308594 382.125 C 333.359375 382.125 332.484375 382.757813 332.046875 383.726563 C 331.5 384.949219 331.429688 386.171875 331.429688 387.519531 L 331.429688 398.304688 C 331.421875 398.703125 331.085938 399.027344 330.667969 399.027344 "/>
<path style=" stroke:none;fill-rule:evenodd;fill:rgb(0%,0%,0%);fill-opacity:1;" d="M 282.597656 398.976563 C 282.339844 399.210938 281.96875 399.222656 281.675781 399.066406 C 280.382813 397.992188 280.148438 397.492188 279.441406 396.46875 C 277.296875 398.648438 275.78125 399.304688 273.003906 399.304688 C 269.71875 399.304688 267.164063 397.277344 267.164063 393.222656 C 267.164063 390.054688 268.878906 387.898438 271.324219 386.84375 C 273.441406 385.910156 276.402344 385.742188 278.664063 385.488281 L 278.664063 384.984375 C 278.664063 384.054688 278.738281 382.953125 278.191406 382.152344 C 277.714844 381.433594 276.804688 381.136719 276 381.136719 C 274.511719 381.136719 273.1875 381.902344 272.863281 383.480469 C 272.792969 383.835938 272.539063 384.183594 272.183594 384.199219 L 268.402344 383.789063 C 268.082031 383.71875 267.726563 383.460938 267.816406 382.972656 C 268.675781 378.449219 272.71875 377.035156 276.390625 377 L 276.679688 377 C 278.5625 377.023438 280.964844 377.539063 282.425781 378.941406 C 284.324219 380.714844 284.140625 383.082031 284.140625 385.660156 L 284.140625 391.738281 C 284.140625 393.570313 284.902344 394.371094 285.613281 395.355469 C 285.863281 395.710938 285.921875 396.132813 285.601563 396.394531 C 284.804688 397.0625 283.386719 398.292969 282.609375 398.984375 Z M 278.664063 389.460938 C 278.664063 390.980469 278.699219 392.246094 277.933594 393.601563 C 277.3125 394.699219 276.328125 395.375 275.230469 395.375 C 273.734375 395.375 272.859375 394.234375 272.859375 392.542969 C 272.859375 389.21875 275.839844 388.617188 278.664063 388.617188 L 278.664063 389.460938 "/>
<path style=" stroke:none;fill-rule:evenodd;fill:rgb(0%,0%,0%);fill-opacity:1;" d="M 231.4375 398.976563 C 231.179688 399.210938 230.804688 399.222656 230.515625 399.066406 C 229.214844 397.992188 228.984375 397.492188 228.277344 396.46875 C 226.132813 398.648438 224.617188 399.304688 221.84375 399.304688 C 218.554688 399.304688 216 397.277344 216 393.222656 C 216 390.054688 217.714844 387.898438 220.160156 386.84375 C 222.277344 385.910156 225.238281 385.742188 227.5 385.488281 L 227.5 384.984375 C 227.5 384.054688 227.574219 382.953125 227.027344 382.152344 C 226.550781 381.433594 225.636719 381.136719 224.835938 381.136719 C 223.347656 381.136719 222.023438 381.902344 221.699219 383.480469 C 221.632813 383.835938 221.375 384.183594 221.019531 384.199219 L 217.238281 383.789063 C 216.917969 383.71875 216.5625 383.460938 216.65625 382.972656 C 217.511719 378.449219 221.554688 377.035156 225.226563 377 L 225.519531 377 C 227.398438 377.023438 229.800781 377.539063 231.261719 378.941406 C 233.160156 380.714844 232.976563 383.082031 232.976563 385.660156 L 232.976563 391.738281 C 232.976563 393.570313 233.738281 394.371094 234.449219 395.355469 C 234.699219 395.710938 234.757813 396.132813 234.4375 396.394531 C 233.640625 397.0625 232.222656 398.292969 231.445313 398.984375 Z M 227.5 389.460938 C 227.5 390.980469 227.535156 392.246094 226.769531 393.601563 C 226.148438 394.699219 225.164063 395.375 224.070313 395.375 C 222.570313 395.375 221.695313 394.234375 221.695313 392.542969 C 221.695313 389.21875 224.679688 388.617188 227.5 388.617188 L 227.5 389.460938 "/>
<path style=" stroke:none;fill-rule:evenodd;fill:rgb(0%,0%,0%);fill-opacity:1;" d="M 385.597656 380.261719 C 390.011719 380.261719 392.894531 383.769531 392.894531 388.089844 C 392.894531 392.414063 390.046875 395.921875 385.597656 395.921875 C 381.148438 395.921875 378.339844 392.414063 378.339844 388.089844 C 378.339844 383.769531 381.179688 380.261719 385.597656 380.261719 Z M 385.597656 377.855469 C 391.890625 377.855469 396 382.519531 396 388.21875 C 396 393.917969 391.636719 398.535156 385.597656 398.535156 C 379.554688 398.535156 375.191406 393.917969 375.191406 388.21875 C 375.191406 382.519531 379.300781 377.855469 385.597656 377.855469 "/>
<path style=" stroke:none;fill-rule:evenodd;fill:rgb(0%,0%,0%);fill-opacity:1;" d="M 359.214844 380.257813 C 363.304688 380.257813 366.789063 383.367188 366.789063 387.90625 C 366.789063 392.59375 363.578125 395.316406 359.253906 395.316406 C 354.929688 395.316406 352.199219 392.03125 352.199219 387.828125 C 352.199219 383.601563 355.121094 380.257813 359.214844 380.257813 Z M 351.535156 401.558594 C 353.09375 403.199219 355.046875 405.140625 359.308594 405.140625 C 361.859375 405.140625 363.800781 404.21875 365.015625 402.558594 C 365.96875 401.25 366.476563 399.714844 366.476563 397.558594 L 366.476563 394.203125 C 364.785156 396.546875 362.308594 397.859375 358.808594 397.859375 C 352.9375 397.859375 349.058594 393.449219 349.058594 387.910156 C 349.058594 382.371094 353.011719 377.878906 359.132813 377.878906 C 362.375 377.878906 364.824219 379.359375 366.476563 381.507813 L 366.476563 378.328125 L 369.421875 378.328125 L 369.421875 397.84375 C 369.421875 403.964844 365.433594 407.796875 359.40625 407.796875 C 354.019531 407.796875 351.121094 405.652344 349.464844 403.847656 L 351.535156 401.558594 "/>
</g>
</svg>
